<svg xmlns="http://www.w3.org/2000/svg" viewBox="0 0 360 340" fill="none">
  <path d="M80 316C95 215 123 163 184 89M184 316c-10-91 10-156 68-216M279 316c-12-62-10-110 18-154" stroke="#24704F" stroke-width="9" stroke-linecap="round"/>
  <g fill="#67A86D" stroke="#17483B" stroke-width="5"><path d="M107 218c-45-13-68-6-84 8 26 28 52 32 84-8Z"/><path d="M163 170c38-31 68-35 90-24-11 34-35 50-90 24Z"/><path d="M239 232c-39-17-65-13-84-1 20 30 46 39 84 1Z"/></g>
  <g stroke="#17483B" stroke-width="6"><circle cx="188" cy="76" r="24" fill="#F4C84C"/><circle cx="188" cy="33" r="23" fill="#F2AEC4"/><circle cx="226" cy="55" r="23" fill="#F2AEC4"/><circle cx="223" cy="99" r="23" fill="#F2AEC4"/><circle cx="181" cy="119" r="23" fill="#F2AEC4"/><circle cx="148" cy="91" r="23" fill="#F2AEC4"/><circle cx="153" cy="49" r="23" fill="#F2AEC4"/>
  <circle cx="280" cy="147" r="20" fill="#F4C84C"/><circle cx="280" cy="111" r="18" fill="#8C74C7"/><circle cx="313" cy="136" r="18" fill="#8C74C7"/><circle cx="300" cy="174" r="18" fill="#8C74C7"/><circle cx="261" cy="177" r="18" fill="#8C74C7"/><circle cx="247" cy="137" r="18" fill="#8C74C7"/>
  <circle cx="72" cy="201" r="17" fill="#F4C84C"/><circle cx="72" cy="170" r="15" fill="#A9D8E8"/><circle cx="100" cy="191" r="15" fill="#A9D8E8"/><circle cx="89" cy="221" r="15" fill="#A9D8E8"/><circle cx="56" cy="225" r="15" fill="#A9D8E8"/><circle cx="43" cy="191" r="15" fill="#A9D8E8"/></g>
</svg>
