<svg xmlns="http://www.w3.org/2000/svg" viewBox="0 0 420 270" fill="none">
  <path d="M28 246C102 181 134 121 154 22M112 183c64-33 132-35 268 28" stroke="#1F684A" stroke-width="9" stroke-linecap="round"/>
  <g fill="#6EAC70" stroke="#17483B" stroke-width="5"><path d="M79 199C26 169 13 132 20 103c45 4 76 33 59 96Z"/><path d="M127 126C74 94 69 57 82 32c44 13 67 44 45 94Z"/><path d="M160 83c36-49 73-61 103-53-6 47-39 72-103 53Z"/><path d="M205 181c34-45 71-54 100-44-9 42-40 63-100 44Z"/><path d="M293 204c34-42 70-49 98-38-11 39-42 57-98 38Z"/></g>
  <g fill="#F4C84C" stroke="#17483B" stroke-width="4"><circle cx="155" cy="23" r="12"/><circle cx="378" cy="211" r="10"/></g>
</svg>
