<svg xmlns="http://www.w3.org/2000/svg" viewBox="0 0 420 300">
  <path d="M51 156c-27-22-36-54-13-74 20-17 49-8 68-20 23-15 32-52 65-48 34 5 41 42 67 49 30 8 66-16 90 5 24 20 8 54 20 78 13 26 54 37 50 70-5 38-51 41-77 57-26 16-38 53-71 52-31-1-45-35-73-43-31-9-68 17-93-5-24-21-7-56-18-83-9-22-38-25-15-38Z" fill="#7A5544" stroke="#3B281F" stroke-width="9" stroke-linejoin="round"/>
  <g fill="#B17A5C" opacity=".9"><circle cx="122" cy="126" r="18"/><circle cx="242" cy="109" r="13"/><circle cx="306" cy="188" r="22"/><circle cx="172" cy="225" r="12"/><circle cx="90" cy="206" r="9"/></g>
  <g fill="#7A5544" stroke="#3B281F" stroke-width="7"><circle cx="57" cy="49" r="14"/><circle cx="365" cy="51" r="10"/><circle cx="389" cy="261" r="15"/><circle cx="27" cy="242" r="11"/></g>
</svg>
