<svg xmlns="http://www.w3.org/2000/svg" viewBox="0 0 900 170" fill="none">
  <path d="M18 126C142 35 253 153 384 70C508-8 618 107 884 32" stroke="#2F7552" stroke-width="9" stroke-linecap="round"/>
  <g fill="#69A66C" stroke="#17483B" stroke-width="4">
    <path d="M138 84C105 46 81 42 62 48c8 25 27 44 76 36Z"/>
    <path d="M245 111c26-43 55-55 79-52-3 29-22 50-79 52Z"/>
    <path d="M458 55c-22-39-49-51-72-48 1 28 18 49 72 48Z"/>
    <path d="M627 75c30-42 61-50 84-44-7 29-28 48-84 44Z"/>
    <path d="M766 50c-20-32-42-43-62-40 1 25 16 42 62 40Z"/>
  </g>
  <g stroke="#17483B" stroke-width="4">
    <circle cx="358" cy="78" r="17" fill="#F4C84C"/>
    <circle cx="358" cy="49" r="14" fill="#F4ABC1"/><circle cx="382" cy="65" r="14" fill="#F4ABC1"/><circle cx="375" cy="94" r="14" fill="#F4ABC1"/><circle cx="342" cy="99" r="14" fill="#F4ABC1"/><circle cx="334" cy="67" r="14" fill="#F4ABC1"/>
    <circle cx="844" cy="41" r="14" fill="#F4C84C"/>
    <circle cx="844" cy="17" r="11" fill="#8B73C6"/><circle cx="865" cy="31" r="11" fill="#8B73C6"/><circle cx="858" cy="55" r="11" fill="#8B73C6"/><circle cx="831" cy="58" r="11" fill="#8B73C6"/><circle cx="823" cy="31" r="11" fill="#8B73C6"/>
  </g>
</svg>
