<svg xmlns="http://www.w3.org/2000/svg" width="1600" height="900" viewBox="0 0 1600 900"><defs>
    <filter id="paper"><feTurbulence type="fractalNoise" baseFrequency="0.018" numOctaves="3" seed="11" result="n"/><feColorMatrix in="n" type="saturate" values="0" result="g"/><feBlend in="SourceGraphic" in2="g" mode="soft-light"/></filter>
    <filter id="rough"><feTurbulence type="fractalNoise" baseFrequency="0.008 0.03" numOctaves="2" seed="5" result="n"/><feDisplacementMap in="SourceGraphic" in2="n" scale="2"/></filter>
    <linearGradient id="ink" x1="0" y1="0" x2="1" y2="1"><stop stop-color="#0b0d15"/><stop offset="1" stop-color="#26283a"/></linearGradient>
    
    </defs>
<rect width="1600" height="900" fill="#11131a"/>
<path d="M0 180H1600V900H0Z" fill="#564a3d"/>
<g fill="#d8ccb1" stroke="#8e7d63" stroke-width="3" filter="url(#rough)"><rect x="120" y="260" width="410" height="470" transform="rotate(-5 120 260)"/><rect x="570" y="150" width="480" height="560" transform="rotate(2 570 150)"/><rect x="1090" y="240" width="360" height="450" transform="rotate(6 1090 240)"/></g>
<g stroke="#6e5b46" stroke-width="4" opacity=".62"><path d="M180 360H440M180 410H470M180 460H430M650 270H970M650 330H930M650 390H990M1160 350H1370M1160 410H1400"/></g>
<g opacity=".22" filter="url(#paper)"><rect width="1600" height="900" fill="#fff"/></g>
</svg>