<svg xmlns="http://www.w3.org/2000/svg" width="1600" height="900" viewBox="0 0 1600 900"><defs>
    <filter id="paper"><feTurbulence type="fractalNoise" baseFrequency="0.018" numOctaves="3" seed="11" result="n"/><feColorMatrix in="n" type="saturate" values="0" result="g"/><feBlend in="SourceGraphic" in2="g" mode="soft-light"/></filter>
    <filter id="rough"><feTurbulence type="fractalNoise" baseFrequency="0.008 0.03" numOctaves="2" seed="5" result="n"/><feDisplacementMap in="SourceGraphic" in2="n" scale="2"/></filter>
    <linearGradient id="ink" x1="0" y1="0" x2="1" y2="1"><stop stop-color="#0b0d15"/><stop offset="1" stop-color="#26283a"/></linearGradient>
    <linearGradient id="sun" x1="0" y1="0" x2="0" y2="1"><stop stop-color="#e78f53"/><stop offset=".38" stop-color="#a85850"/><stop offset="1" stop-color="#292334"/></linearGradient>
    </defs>
<rect width="1600" height="900" fill="#151626"/>
<rect x="0" y="0" width="1600" height="590" fill="url(#sun)"/>
<g filter="url(#rough)"><path d="M0 515 C240 420 410 470 610 410 S1010 380 1230 420 1480 385 1600 355 V610 H0Z" fill="#473242"/><path d="M0 565 C270 500 500 545 730 475 S1200 500 1600 430 V655 H0Z" fill="#1f2535"/></g>
<g opacity=".88"><rect x="92" y="88" width="1416" height="526" rx="36" fill="#2b2d39" stroke="#72757e" stroke-width="14"/><rect x="118" y="114" width="1364" height="474" rx="24" fill="none" stroke="#11141d" stroke-width="18"/><path d="M574 114V588M1028 114V588" stroke="#1d2029" stroke-width="12"/></g>
<g opacity=".9"><path d="M0 610H1600V900H0Z" fill="#0b0d14"/><path d="M0 690 C250 620 520 650 800 630 S1320 655 1600 610 V900 H0Z" fill="#20222d"/><path d="M65 790 h430 q34 0 48 32 v78 H0v-42q0-68 65-68z" fill="#383a47"/><path d="M1105 790h430q65 0 65 68v42h-543v-78q14-32 48-32z" fill="#383a47"/></g>
<path d="M112 596H1488" stroke="#d7a25f" stroke-width="2" opacity=".3"/>
<g opacity=".28" filter="url(#paper)"><rect width="1600" height="900" fill="#fff"/></g>
</svg>